<svg xmlns:inkscape="http://www.inkscape.org/namespaces/inkscape" xmlns:sodipodi="http://sodipodi.sourceforge.net/DTD/sodipodi-0.dtd" xmlns="http://www.w3.org/2000/svg" xmlns:svg="http://www.w3.org/2000/svg" width="45.155556mm" height="45.15556mm" viewBox="0 0 45.155556 45.15556" version="1.1" id="svg5" xml:space="preserve" sodipodi:docname="b-101.svg" inkscape:version="1.3.1 (91b66b0783, 2023-11-16)"><sodipodi:namedview id="namedview1" pagecolor="#ffffff" bordercolor="#000000" borderopacity="0.25" inkscape:showpageshadow="2" inkscape:pageopacity="0.0" inkscape:pagecheckerboard="0" inkscape:deskcolor="#d1d1d1" inkscape:document-units="mm" inkscape:zoom="8.3261711" inkscape:cx="85.333341" inkscape:cy="85.333341" inkscape:window-width="2880" inkscape:window-height="1694" inkscape:window-x="-11" inkscape:window-y="-11" inkscape:window-maximized="1" inkscape:current-layer="svg5"/><g id="layer1" style="display:inline" transform="translate(-12.432333,-9.3333089)"><path id="rect633" style="display:inline;fill:#0000ff;stroke-width:0.196378" d="M 12.432333,9.3333088 H 57.587889 V 54.488864 H 12.432333 Z"/><g id="g997" transform="matrix(0.8,0,0,0.8,-4.6502484,-1.3451676)"><path id="rect738" clip-path="url(#clipPath985)" style="display:inline;opacity:1;fill:#ffffff;stroke-width:0.25937" d="m 30.256126,29.217407 h 6.945842 v 34.827648 h -6.945842 z"/><path id="rect740" style="display:inline;fill:#ffffff;stroke-width:0.402849" d="M 38.026469,29.217346 V 64.045117 H 53.04837 V 29.217346 Z m 6.843997,4.35319 h 1.333907 v 26.120641 h -1.333907 z" clip-path="url(#clipPath979)"/><path id="rect740-6" style="display:inline;fill:#ffffff;stroke-width:0.402849" d="M 53.872871,29.217346 V 64.045117 H 68.894772 V 29.217346 Z m 6.843997,4.35319 h 1.333907 v 26.120641 h -1.333907 z" clip-path="url(#clipPath973)"/><g id="g955" transform="matrix(1.6153119,0,0,1.4633517,-26.240902,-23.307417)" style="fill:#ffffff" clip-path="url(#clipPath967)"><path id="rect918" style="opacity:1" d="M 56.146163 28.976782 L 56.146163 30.726579 L 54.396222 30.726579 L 54.396222 31.726399 L 56.146163 31.726399 L 56.146163 33.476637 L 57.146301 33.476637 L 57.146301 31.726399 L 58.896242 31.726399 L 58.896242 30.726579 L 57.146301 30.726579 L 57.146301 28.976782 L 56.146163 28.976782 z "/></g></g></g></svg>