  <svg width="48" height="48" viewBox="0 0 48 48" xmlns="http://www.w3.org/2000/svg"><path d="M29.453 21.494c4.562 0 8.261 3.098 8.261 6.917 0 2.085-1.114 3.962-2.854 5.23a.551.551 0 0 0-.202.626c.139.523.362 1.356.372 1.398.016.065.044.133.044.202a.276.276 0 0 1-.275.276.31.31 0 0 1-.159-.052l-1.81-1.05a.878.878 0 0 0-.437-.127.814.814 0 0 0-.244.037 9.75 9.75 0 0 1-2.696.38c-4.564 0-8.263-3.097-8.263-6.92 0-3.819 3.699-6.917 8.263-6.917zm-9.254-7.637c4.947 0 9.044 3.034 9.791 7a9.299 9.299 0 0 0-.538-.016c-4.994 0-9.04 3.391-9.04 7.57 0 .707.116 1.389.332 2.037a11.721 11.721 0 0 1-3.78-.442.963.963 0 0 0-.292-.045 1.04 1.04 0 0 0-.527.153l-2.17 1.26a.372.372 0 0 1-.19.061.331.331 0 0 1-.331-.33c0-.084.033-.167.052-.244.014-.048.28-1.049.447-1.676a.66.66 0 0 0-.244-.75c-2.088-1.524-3.423-3.774-3.423-6.276 0-4.585 4.437-8.302 9.913-8.302zm6.5 11.236c-.609 0-1.102.495-1.102 1.105 0 .612.493 1.108 1.102 1.108.608 0 1.1-.496 1.1-1.108 0-.61-.492-1.105-1.1-1.105zm5.508 0c-.61 0-1.102.495-1.102 1.105 0 .612.493 1.108 1.102 1.108.607 0 1.1-.496 1.1-1.108 0-.61-.493-1.105-1.1-1.105zm-15.312-6.92c-.73 0-1.323.596-1.323 1.33 0 .733.594 1.326 1.323 1.326.73 0 1.321-.593 1.321-1.327 0-.733-.592-1.328-1.32-1.328zm6.61 0c-.732 0-1.323.596-1.323 1.33 0 .733.591 1.326 1.322 1.326.73 0 1.322-.593 1.322-1.327 0-.733-.592-1.328-1.322-1.328z" fill="#FFF" fill-rule="evenodd" /></svg>
