<svg width="49" height="48" viewBox="0 0 49 48" xmlns="http://www.w3.org/2000/svg"><path d="M33.86 27.036a37.149 37.149 0 0 0-.818-2.263l-1.098-2.695c0-.032.012-.562.012-.838 0-4.608-2.217-9.24-7.671-9.24-5.453 0-7.67 4.632-7.67 9.24 0 .276.013.806.013.838l-1.099 2.695c-.302.77-.6 1.574-.818 2.263-1.04 3.283-.704 4.644-.448 4.673.552.067 2.145-2.472 2.145-2.472 0 1.469.772 3.386 2.439 4.771-.624.19-1.39.48-1.88.835-.443.322-.388.646-.308.778.351.578 5.997.37 7.628.19 1.629.18 7.277.388 7.625-.19.08-.132.136-.456-.307-.778-.491-.357-1.256-.645-1.88-.835 1.667-1.385 2.439-3.302 2.439-4.771 0 0 1.592 2.539 2.144 2.472.256-.029.593-1.39-.448-4.673" fill="#FFF" fill-rule="evenodd" /></svg>
